# File created by Blade
# Date/Time:  Thu Jan 22 16:10:22 2015
#---------------------------------------------------------
:version 1.10
:name HOM
:units
  mass 1.0
  length 1.000000
  angle deg
:documentation
     Acclaim Skeleton File
:root
   axis xyz
   order TX TY TZ RX RY RZ
   position 0.000000 0.000000 0.000000
   orientation 0 0 0
:bonedata
   begin
      id 1
      name RightUpLeg_dum
      direction -1.000000 0.000000 0.000000
      length 3.766986
      axis 0.0 0.0 0.0 xyz
   end
   begin
      id 2
      name LeftUpLeg_dum
      direction 1.000000 0.000000 0.000000
      length 3.766986
      axis 0.0 0.0 0.0 xyz
   end
   begin
      id 3
      name Spine_dum
      direction 0.000000 1.000000 0.000000
      length 7.779697
      axis 0.0 0.0 0.0 xyz
   end
   begin
      id 4
      name RightUpLeg
      direction 0.000000 -1.000000 0.000000
      length 18.017682
      axis 0.0 0.0 0.0 xyz
      dof rx ry rz
   end
   begin
      id 5
      name RightLeg
      direction 0.000000 -1.000000 0.000000
      length 16.881075
      axis 0.0 0.0 0.0 xyz
      dof rx ry rz
   end
   begin
      id 6
      name RightFoot
      direction 0.000000 -0.258819 0.965926
      length 5.770812
      axis 15.0 0.0 0.0 xyz
      dof rx ry rz
   end
   begin
      id 7
      name RightToeBase
      direction 0.000000 0.000000 1.000000
      length 2.952750
      axis 0.0 0.0 0.0 xyz
      dof rx ry rz
   end
   begin
      id 8
      name LeftUpLeg
      direction 0.000000 -1.000000 0.000000
      length 18.017682
      axis 0.0 0.0 0.0 xyz
      dof rx ry rz
   end
   begin
      id 9
      name LeftLeg
      direction 0.000000 -1.000000 0.000000
      length 16.881075
      axis 0.0 0.0 0.0 xyz
      dof rx ry rz
   end
   begin
      id 10
      name LeftFoot
      direction 0.000000 -0.258819 0.965926
      length 5.770812
      axis 15.0 0.0 0.0 xyz
      dof rx ry rz
   end
   begin
      id 11
      name LeftToeBase
      direction 0.000000 0.000000 1.000000
      length 2.952750
      axis 0.0 0.0 0.0 xyz
      dof rx ry rz
   end
   begin
      id 12
      name Spine
      direction 0.000000 1.000000 0.000000
      length 0.000000
      axis 0.0 0.0 0.0 xyz
      dof rx ry rz
   end
   begin
      id 13
      name Spine_dum1
      direction 0.000000 1.000000 0.000000
      length 10.941760
      axis 0.0 0.0 0.0 xyz
   end
   begin
      id 14
      name Spine_dum2
      direction 0.000000 1.000000 0.000000
      length 10.941760
      axis 0.0 0.0 0.0 xyz
   end
   begin
      id 15
      name Spine_dum3
      direction 0.000000 1.000000 0.000000
      length 16.646042
      axis 0.0 0.0 0.0 xyz
   end
   begin
      id 16
      name RightShoulder
      direction -1.000000 0.000000 0.000000
      length 7.708937
      axis 0.0 0.0 90.0 xyz
      dof rx ry rz
   end
   begin
      id 17
      name RightArm
      direction -1.000000 0.000000 0.000000
      length 11.521345
      axis 0.0 0.0 90.0 xyz
      dof rx ry rz
   end
   begin
      id 18
      name RightForeArm
      direction -1.000000 0.000000 0.000000
      length 10.175898
      axis 0.0 0.0 90.0 xyz
      dof ry rz rx
   end
   begin
      id 19
      name RightHand
      direction -1.000000 0.000000 0.000000
      length 0.000000
      axis 0.0 0.0 90.0 xyz
      dof rx ry rz
   end
   begin
      id 20
      name RightHand_dum1
      direction -1.000000 0.000000 0.000000
      length 3.937000
      axis 0.0 0.0 90.0 xyz
   end
   begin
      id 21
      name RightHand_dum2
      direction 0.000000 0.000000 0.000000
      length 0.000000
      axis 0.0 0.0 90.0 xyz
   end
   begin
      id 22
      name RightHandThumb1
      direction 0.000000 0.000000 1.000000
      length 3.937000
      axis 0.0 0.0 90.0 xyz
      dof rx rz ry
   end
   begin
      id 23
      name LeftShoulder
      direction 1.000000 0.000000 0.000000
      length 7.708937
      axis 0.0 0.0 -90.0 xyz
      dof rx ry rz
   end
   begin
      id 24
      name LeftArm
      direction 1.000000 0.000000 0.000000
      length 11.521345
      axis 0.0 0.0 -90.0 xyz
      dof rx ry rz
   end
   begin
      id 25
      name LeftForeArm
      direction 1.000000 0.000000 0.000000
      length 10.175898
      axis 0.0 0.0 -90.0 xyz
      dof ry rz rx
   end
   begin
      id 26
      name LeftHand
      direction 1.000000 0.000000 0.000000
      length 0.000000
      axis 0.0 0.0 -90.0 xyz
      dof rx ry rz
   end
   begin
      id 27
      name LeftHand_dum1
      direction 1.000000 0.000000 0.000000
      length 3.937000
      axis 0.0 0.0 -90.0 xyz
   end
   begin
      id 28
      name LeftHand_dum2
      direction 0.000000 0.000000 0.000000
      length 0.000000
      axis 0.0 0.0 -90.0 xyz
   end
   begin
      id 29
      name LeftHandThumb1
      direction 0.000000 0.000000 1.000000
      length 3.937000
      axis 0.0 0.0 -90.0 xyz
      dof rx rz ry
   end
   begin
      id 30
      name Head
      direction 0.000000 1.000000 0.000000
      length 4.527550
      axis 0.0 0.0 0.0 xyz
      dof rx ry rz
   end
:hierarchy
   begin
      root RightUpLeg_dum LeftUpLeg_dum Spine_dum
      RightUpLeg_dum RightUpLeg
      LeftUpLeg_dum LeftUpLeg
      Spine_dum Spine
      RightUpLeg RightLeg
      RightLeg RightFoot
      RightFoot RightToeBase
      LeftUpLeg LeftLeg
      LeftLeg LeftFoot
      LeftFoot LeftToeBase
      Spine Spine_dum1 Spine_dum2 Spine_dum3
      Spine_dum1 RightShoulder
      Spine_dum2 LeftShoulder
      Spine_dum3 Head
      RightShoulder RightArm
      RightArm RightForeArm
      RightForeArm RightHand
      RightHand RightHand_dum1 RightHand_dum2
      RightHand_dum2 RightHandThumb1
      LeftShoulder LeftArm
      LeftArm LeftForeArm
      LeftForeArm LeftHand
      LeftHand LeftHand_dum1 LeftHand_dum2
      LeftHand_dum2 LeftHandThumb1
   end

# File created by Blade
# Date/Time:  Thu Jan 22 16:10:14 2015
# Frame Rate: 120.000 fps
#------------------------------------------------------
:FULLY-SPECIFIED
:DEGREES
176
root 1.435393 37.340026 3.067251 -3.506860 -4.188736 0.736140
RightUpLeg 3.039484 -5.086146 -3.647952
RightLeg 11.145775 -0.000000 -0.000000
RightFoot -15.622066 -3.599912 21.680994
RightToeBase 15.890893 -0.000000 -0.000000
LeftUpLeg 8.016289 1.045387 2.538439
LeftLeg 0.601810 -0.000000 -0.000000
LeftFoot -9.558560 12.239246 -19.058755
LeftToeBase 8.825591 -0.000000 -0.000000
Spine 11.372893 -1.655372 -7.574276
RightShoulder -8.275364 -21.003929 -20.446444
RightArm 10.070256 12.575476 45.065024
RightForeArm 2.640124 -0.000000 50.464907
RightHand 4.038454 0.000000 1.048669
RightHandThumb1 -24.326973 -0.000000 -32.862282
LeftShoulder -26.397270 33.836484 14.189289
LeftArm 38.340173 -44.964192 -51.338466
LeftForeArm 33.190582 -0.000000 17.731002
LeftHand -18.132839 -0.000000 -6.352475
LeftHandThumb1 -26.253704 0.000000 33.147579
Head 6.913848 10.135855 8.122639
177
root 1.394253 37.336220 3.028466 -3.597929 -4.233198 0.664904
RightUpLeg 2.387255 -5.150486 -3.608739
RightLeg 12.573537 -0.000000 -0.000000
RightFoot -15.840440 -2.783379 22.087222
RightToeBase 16.145787 -0.000000 -0.000000
LeftUpLeg 8.071807 0.908900 2.663017
LeftLeg 0.590959 -0.000000 -0.000000
LeftFoot -9.600937 12.360765 -19.111713
LeftToeBase 8.833321 -0.000000 -0.000000
Spine 11.786355 -1.621844 -7.979934
RightShoulder -8.320650 -21.325360 -19.989356
RightArm 10.552818 11.659333 45.970019
RightForeArm 1.517353 0.000000 51.682706
RightHand 4.010624 -0.000000 1.635466
RightHandThumb1 -24.326973 -0.000000 -32.862282
LeftShoulder -26.283311 33.864594 14.272162
LeftArm 38.214770 -44.818329 -51.338076
LeftForeArm 33.084660 0.000000 17.738856
LeftHand -18.072749 -0.000000 -6.327359
LeftHandThumb1 -26.253704 0.000000 33.147579
Head 6.482454 10.168698 8.408663
178
root 1.353582 37.331880 2.990577 -3.714827 -4.295865 0.572986
RightUpLeg 1.708010 -5.268953 -3.596051
RightLeg 14.126711 -0.000000 -0.000000
RightFoot -15.950702 -1.685968 22.612350
RightToeBase 16.611897 -0.000000 -0.000000
LeftUpLeg 8.180811 0.763911 2.801222
LeftLeg 0.538408 -0.000000 -0.000000
LeftFoot -9.645116 12.535238 -19.134239
LeftToeBase 8.826609 -0.000000 -0.000000
Spine 12.239345 -1.607507 -8.352508
RightShoulder -8.359342 -21.609754 -19.521992
RightArm 11.058819 10.645101 46.774375
RightForeArm 0.244959 -0.000000 52.858812
RightHand 3.914885 -0.000000 1.865518
RightHandThumb1 -24.326973 -0.000000 -32.862282
LeftShoulder -26.147563 33.897948 14.390499
LeftArm 38.041477 -44.748973 -51.467611
LeftForeArm 33.221893 -0.000000 17.831426
LeftHand -18.029317 -0.000000 -6.612420
LeftHandThumb1 -26.253704 0.000000 33.147579
Head 6.034107 10.241762 8.651417
179
root 1.311010 37.327835 2.951715 -3.850438 -4.389584 0.471318
RightUpLeg 1.093025 -5.137361 -3.583127
RightLeg 15.589130 -0.000000 -0.000000
RightFoot -16.010755 -0.600463 23.219227
RightToeBase 16.843797 -0.000000 -0.000000
LeftUpLeg 8.297838 0.754745 2.974368
LeftLeg 0.515463 -0.000000 -0.000000
LeftFoot -9.659439 12.583610 -19.127593
LeftToeBase 8.774070 -0.000000 -0.000000
Spine 12.740623 -1.576748 -8.706404
RightShoulder -8.432093 -22.011931 -18.982170
RightArm 11.713273 9.813813 47.505681
RightForeArm -0.718820 -0.000000 53.993234
RightHand 3.964172 -0.000000 2.537305
RightHandThumb1 -24.326973 -0.000000 -32.862282
LeftShoulder -26.072170 33.957077 14.459052
LeftArm 38.028118 -44.716458 -51.748478
LeftForeArm 33.283863 0.000000 17.852923
LeftHand -18.194020 0.000000 -6.723107
LeftHandThumb1 -26.253704 0.000000 33.147579
Head 5.511768 10.284916 8.818591
180
root 1.271873 37.322726 2.919412 -4.041537 -4.506207 0.367960
RightUpLeg 0.520729 -5.017549 -3.628479
RightLeg 17.081848 -0.000000 -0.000000
RightFoot -15.985593 0.660923 24.042213
RightToeBase 17.010466 -0.000000 -0.000000
LeftUpLeg 8.516871 0.749894 3.137099
LeftLeg 0.438986 -0.000000 -0.000000
LeftFoot -9.702455 12.659251 -19.119399
LeftToeBase 8.826213 -0.000000 -0.000000
Spine 13.314101 -1.548155 -9.004979
RightShoulder -8.493711 -22.368141 -18.519884
RightArm 12.356709 8.860121 48.214310
RightForeArm -1.939311 -0.000000 55.148277
RightHand 3.820489 -0.000000 2.768124
RightHandThumb1 -24.326973 -0.000000 -32.862282
LeftShoulder -26.119483 34.088273 14.347294
LeftArm 38.205223 -44.710115 -52.090932
LeftForeArm 33.213907 0.000000 17.772656
LeftHand -18.218934 -0.000000 -6.590431
LeftHandThumb1 -26.253704 0.000000 33.147579
Head 4.933858 10.571323 8.947471
181
root 1.233322 37.317588 2.887500 -4.246653 -4.640262 0.243672
RightUpLeg -0.038488 -4.845169 -3.694609
RightLeg 18.586480 -0.000000 -0.000000
RightFoot -15.885406 2.146545 25.182923
RightToeBase 17.281074 -0.000000 -0.000000
LeftUpLeg 8.790038 0.619965 3.312155
LeftLeg 0.277958 -0.000000 -0.000000
LeftFoot -9.727720 12.824076 -19.212861
LeftToeBase 8.740863 -0.000000 -0.000000
Spine 13.905273 -1.521940 -9.261511
RightShoulder -8.532703 -22.676906 -18.061819
RightArm 13.003919 7.880775 48.829718
RightForeArm -3.037313 -0.000000 56.179958
RightHand 3.783837 -0.000000 2.941286
RightHandThumb1 -24.326973 -0.000000 -32.862282
LeftShoulder -26.171566 34.208195 14.253049
LeftArm 38.356544 -44.635638 -52.441517
LeftForeArm 33.260802 -0.000000 17.633297
LeftHand -18.248817 -0.000000 -6.387815
LeftHandThumb1 -26.253704 0.000000 33.147579
Head 4.364269 10.734135 8.974447
182
root 1.199037 37.312686 2.860448 -4.476945 -4.768399 0.141856
RightUpLeg -0.538461 -4.603315 -3.817378
RightLeg 20.036570 -0.000000 -0.000000
RightFoot -15.611330 3.714349 26.401509
RightToeBase 16.881418 -0.000000 -0.000000
LeftUpLeg 9.082877 0.592795 3.467739
LeftLeg 0.143183 -0.000000 -0.000000
LeftFoot -9.738510 12.950882 -19.143167
LeftToeBase 8.818613 -0.000000 -0.000000
Spine 14.495429 -1.517827 -9.512356
RightShoulder -8.484438 -22.940766 -17.662430
RightArm 13.576211 6.893249 49.384646
RightForeArm -3.934457 -0.000000 57.129528
RightHand 3.796168 -0.000000 3.147197
RightHandThumb1 -24.326973 -0.000000 -32.862282
LeftShoulder -26.199023 34.387154 14.169275
LeftArm 38.602929 -44.644331 -53.015820
LeftForeArm 33.472008 -0.000000 17.543799
LeftHand -18.237469 0.000000 -6.223899
LeftHandThumb1 -26.253704 0.000000 33.147579
Head 3.844288 10.870454 8.928313
